<svg xmlns="http://www.w3.org/2000/svg" xmlns:xlink="http://www.w3.org/1999/xlink" width="500" zoomAndPan="magnify" viewBox="0 0 375 374.999991" height="500" preserveAspectRatio="xMidYMid meet" version="1.0"><defs><g/><clipPath id="31a13c4b3b"><path d="M 38.875 239.039062 L 59.890625 239.039062 L 59.890625 260.792969 L 38.875 260.792969 Z M 38.875 239.039062 " clip-rule="nonzero"/></clipPath><clipPath id="dc84de23a2"><path d="M 49.382812 239.039062 C 43.578125 239.039062 38.875 243.894531 38.875 249.886719 C 38.875 255.878906 43.578125 260.738281 49.382812 260.738281 C 55.1875 260.738281 59.890625 255.878906 59.890625 249.886719 C 59.890625 243.894531 55.1875 239.039062 49.382812 239.039062 Z M 49.382812 239.039062 " clip-rule="nonzero"/></clipPath><clipPath id="d5565eefdb"><path d="M 125 80 L 280 80 L 280 228 L 125 228 Z M 125 80 " clip-rule="nonzero"/></clipPath><clipPath id="7f05e8355e"><path d="M 176.449219 72.988281 L 290.523438 136.367188 L 239.894531 227.5 L 125.816406 164.117188 Z M 176.449219 72.988281 " clip-rule="nonzero"/></clipPath><clipPath id="57940f0675"><path d="M 176.449219 72.988281 L 290.523438 136.367188 L 188.898438 319.28125 L 74.820312 255.902344 Z M 176.449219 72.988281 " clip-rule="nonzero"/></clipPath><clipPath id="edaec734b7"><path d="M 86 89.039062 L 196.242188 89.039062 L 196.242188 238 L 86 238 Z M 86 89.039062 " clip-rule="nonzero"/></clipPath><clipPath id="9ae113711c"><path d="M 114.484375 95.648438 L 189.125 95.648438 L 189.125 170.871094 L 114.484375 170.871094 Z M 114.484375 95.648438 " clip-rule="nonzero"/></clipPath><clipPath id="df03913022"><path d="M 151.804688 95.648438 C 131.191406 95.648438 114.484375 112.433594 114.484375 133.140625 C 114.484375 153.847656 131.191406 170.632812 151.804688 170.632812 C 172.417969 170.632812 189.125 153.847656 189.125 133.140625 C 189.125 112.433594 172.417969 95.648438 151.804688 95.648438 Z M 151.804688 95.648438 " clip-rule="nonzero"/></clipPath><clipPath id="aa9fd4506c"><path d="M 133 104 L 182 104 L 182 137 L 133 137 Z M 133 104 " clip-rule="nonzero"/></clipPath><clipPath id="81b79c126f"><path d="M 141.128906 95.648438 L 189.101562 123.554688 L 181.558594 136.519531 L 133.585938 108.613281 Z M 141.128906 95.648438 " clip-rule="nonzero"/></clipPath><clipPath id="db26c5724f"><path d="M 141.128906 95.648438 L 189.101562 123.554688 L 181.558594 136.519531 L 133.585938 108.613281 Z M 141.128906 95.648438 " clip-rule="nonzero"/></clipPath></defs><rect x="-37.5" width="450" fill="#ffffff" y="-37.499999" height="449.999989" fill-opacity="1"/><rect x="-37.5" width="450" fill="#000000" y="-37.499999" height="449.999989" fill-opacity="1"/><g clip-path="url(#31a13c4b3b)"><g clip-path="url(#dc84de23a2)"><path fill="#ffffff" d="M 38.875 239.039062 L 59.890625 239.039062 L 59.890625 260.710938 L 38.875 260.710938 Z M 38.875 239.039062 " fill-opacity="1" fill-rule="nonzero"/></g></g><g clip-path="url(#d5565eefdb)"><g clip-path="url(#7f05e8355e)"><g clip-path="url(#57940f0675)"><path fill="#ffffff" d="M 176.863281 98.679688 L 177.820312 96.953125 C 177.957031 96.707031 177.957031 96.707031 178.09375 96.460938 C 180.5 96.1875 182.828125 94.902344 184.195312 92.441406 C 186.25 88.746094 185.070312 83.902344 181.132812 81.714844 C 177.4375 79.660156 172.59375 80.835938 170.40625 84.777344 C 169.035156 87.242188 169.171875 89.894531 170.214844 92.085938 C 170.078125 92.332031 170.078125 92.332031 169.9375 92.578125 L 80.183594 254.125 C 78.949219 256.34375 79.71875 259.023438 81.933594 260.257812 C 84.148438 261.488281 86.832031 260.722656 88.0625 258.503906 L 141.015625 163.199219 C 164.4375 201.675781 220.039062 181.644531 243.460938 220.121094 C 255.363281 198.695312 267.40625 177.023438 279.308594 155.597656 C 255.886719 117.125 200.175781 136.769531 176.863281 98.679688 Z M 176.863281 98.679688 " fill-opacity="1" fill-rule="nonzero"/></g></g></g><g clip-path="url(#edaec734b7)"><path fill="#ffffff" d="M 130.695312 163.765625 C 128.566406 162.292969 126.601562 160.601562 124.828125 158.722656 C 123.207031 157.007812 121.75 155.140625 120.476562 153.140625 C 117.496094 148.453125 115.539062 143.054688 114.921875 137.253906 C 114.78125 135.945312 114.710938 134.621094 114.710938 133.277344 C 114.710938 112.804688 131.304688 96.210938 151.777344 96.210938 C 165.015625 96.210938 176.632812 103.152344 183.191406 113.597656 C 185.226562 116.839844 186.777344 120.425781 187.730469 124.242188 C 188.457031 127.132812 188.839844 130.160156 188.839844 133.277344 C 188.839844 135.945312 188.558594 138.546875 188.019531 141.058594 C 184.445312 157.792969 169.578125 170.339844 151.777344 170.339844 C 143.945312 170.339844 136.679688 167.910156 130.695312 163.765625 Z M 151.777344 177.515625 C 176.210938 177.515625 196.019531 157.710938 196.019531 133.277344 C 196.019531 108.84375 176.210938 89.035156 151.777344 89.035156 C 127.34375 89.035156 107.535156 108.84375 107.535156 133.277344 C 107.535156 146.5625 113.394531 158.480469 122.664062 166.589844 L 118.417969 173.261719 L 116.175781 171.828125 L 87.640625 220.605469 C 84.519531 225.9375 86.316406 232.792969 91.648438 235.910156 C 96.984375 239.03125 103.835938 237.238281 106.957031 231.902344 L 135.046875 183.886719 L 133.046875 182.609375 L 137.738281 175.242188 C 142.148438 176.71875 146.867188 177.515625 151.777344 177.515625 " fill-opacity="1" fill-rule="nonzero"/></g><g clip-path="url(#9ae113711c)"><g clip-path="url(#df03913022)"><path fill="#000000" d="M 114.484375 95.648438 L 189.125 95.648438 L 189.125 170.582031 L 114.484375 170.582031 Z M 114.484375 95.648438 " fill-opacity="1" fill-rule="nonzero"/></g></g><g clip-path="url(#aa9fd4506c)"><g clip-path="url(#81b79c126f)"><g clip-path="url(#db26c5724f)"><path fill="#ffffff" d="M 133.859375 108.144531 C 135.027344 107.503906 136.238281 106.964844 137.496094 106.53125 C 138.125 106.308594 138.761719 106.117188 139.410156 105.933594 L 139.648438 105.863281 L 139.890625 105.804688 L 140.378906 105.6875 L 140.621094 105.632812 L 140.867188 105.578125 L 141.359375 105.472656 C 144.035156 104.933594 146.730469 104.738281 149.453125 104.890625 C 154.914062 105.175781 160.347656 106.832031 165.117188 109.613281 C 169.886719 112.394531 174.011719 116.289062 176.957031 120.890625 C 178.433594 123.183594 179.601562 125.625 180.453125 128.210938 L 180.605469 128.691406 L 180.679688 128.933594 L 180.75 129.175781 L 180.890625 129.65625 C 180.910156 129.734375 180.9375 129.816406 180.957031 129.894531 L 181.015625 130.140625 L 181.132812 130.625 C 181.171875 130.789062 181.210938 130.949219 181.25 131.113281 C 181.285156 131.28125 181.320312 131.441406 181.351562 131.605469 C 181.382812 131.769531 181.417969 131.929688 181.445312 132.09375 C 181.691406 133.402344 181.824219 134.722656 181.847656 136.050781 L 181.511719 136.140625 C 180.832031 133.679688 179.917969 131.3125 178.777344 129.03125 C 177.644531 126.746094 176.300781 124.597656 174.742188 122.578125 C 174.355469 122.074219 173.953125 121.582031 173.542969 121.101562 C 173.128906 120.617188 172.707031 120.144531 172.277344 119.679688 C 171.410156 118.753906 170.5 117.871094 169.546875 117.035156 C 165.683594 113.652344 161.324219 111.117188 156.472656 109.429688 C 155.277344 109.015625 154.058594 108.660156 152.824219 108.363281 C 152.207031 108.214844 151.585938 108.085938 150.960938 107.96875 C 150.339844 107.851562 149.710938 107.746094 149.082031 107.652344 C 146.5625 107.296875 144.027344 107.191406 141.484375 107.335938 C 138.9375 107.472656 136.425781 107.851562 133.949219 108.480469 Z M 133.859375 108.144531 " fill-opacity="1" fill-rule="nonzero"/></g></g></g><g fill="#ffffff" fill-opacity="1"><g transform="translate(141.91196, 285.729287)"><g><path d="M 6.734375 0 L 1.6875 0 L 1.6875 -19.625 L 17.25 -19.625 L 17.25 -15.703125 L 6.734375 -15.703125 L 6.734375 -11.078125 L 15 -11.078125 L 15 -7.15625 L 6.734375 -7.15625 Z M 6.734375 0 "/></g></g></g><g fill="#ffffff" fill-opacity="1"><g transform="translate(165.05396, 285.729287)"><g><path d="M 6.734375 -3.921875 L 16.96875 -3.921875 L 16.96875 0 L 1.6875 0 L 1.6875 -19.625 L 6.734375 -19.625 Z M 6.734375 -3.921875 "/></g></g></g><g fill="#ffffff" fill-opacity="1"><g transform="translate(187.915464, 285.729287)"><g><path d="M 5.1875 0 L -0.28125 0 L 7.15625 -19.625 L 12.765625 -19.625 L 20.1875 0 L 14.71875 0 L 13.46875 -3.5 L 6.453125 -3.5 Z M 7.71875 -7.15625 L 12.203125 -7.15625 L 9.953125 -13.75 Z M 7.71875 -7.15625 "/></g></g></g><g fill="#ffffff" fill-opacity="1"><g transform="translate(213.441723, 285.729287)"><g><path d="M 18.515625 -0.421875 C 14.140625 0.046875 10.117188 0.28125 6.453125 0.28125 C 4.617188 0.28125 3.269531 -0.144531 2.40625 -1 C 1.550781 -1.863281 1.125 -3.210938 1.125 -5.046875 L 1.125 -14.015625 C 1.125 -15.984375 1.566406 -17.410156 2.453125 -18.296875 C 3.335938 -19.179688 4.765625 -19.625 6.734375 -19.625 L 16.828125 -19.625 L 16.828125 -15.703125 L 7.859375 -15.703125 C 6.734375 -15.703125 6.171875 -15.140625 6.171875 -14.015625 L 6.171875 -5.046875 C 6.171875 -4.617188 6.296875 -4.273438 6.546875 -4.015625 C 6.796875 -3.765625 7.140625 -3.640625 7.578125 -3.640625 C 9.722656 -3.640625 11.6875 -3.6875 13.46875 -3.78125 L 13.46875 -7.859375 L 9.8125 -7.859375 L 9.8125 -11.21875 L 18.515625 -11.21875 Z M 18.515625 -0.421875 "/></g></g></g><g fill="#ffffff" fill-opacity="1"><g transform="translate(161.009713, 308.823529)"><g><path d="M 3.125 0 L 0.78125 0 L 0.78125 -9.109375 L 8 -9.109375 L 8 -7.28125 L 3.125 -7.28125 L 3.125 -5.140625 L 6.96875 -5.140625 L 6.96875 -3.3125 L 3.125 -3.3125 Z M 3.125 0 "/></g></g></g><g fill="#ffffff" fill-opacity="1"><g transform="translate(176.272866, 308.823529)"><g><path d="M 5.078125 0 L 0.390625 0 L 0.390625 -1.828125 L 1.5625 -1.828125 L 1.5625 -7.28125 L 0.390625 -7.28125 L 0.390625 -9.109375 L 5.078125 -9.109375 L 5.078125 -7.28125 L 3.90625 -7.28125 L 3.90625 -1.828125 L 5.078125 -1.828125 Z M 5.078125 0 "/></g></g></g><g fill="#ffffff" fill-opacity="1"><g transform="translate(188.868974, 308.823529)"><g><path d="M 8.71875 0 L 6.25 0 L 3.125 -5.46875 L 3.125 0 L 0.78125 0 L 0.78125 -9.109375 L 3.25 -9.109375 L 6.375 -3.640625 L 6.375 -9.109375 L 8.71875 -9.109375 Z M 8.71875 0 "/></g></g></g><g fill="#ffffff" fill-opacity="1"><g transform="translate(205.498179, 308.823529)"><g><path d="M 5.859375 -9.109375 C 6.835938 -9.109375 7.578125 -8.851562 8.078125 -8.34375 C 8.585938 -7.84375 8.84375 -7.101562 8.84375 -6.125 L 8.84375 -3 C 8.84375 -2.007812 8.585938 -1.257812 8.078125 -0.75 C 7.578125 -0.25 6.835938 0 5.859375 0 L 0.78125 0 L 0.78125 -9.109375 Z M 6.5 -6.125 C 6.5 -6.894531 6.113281 -7.28125 5.34375 -7.28125 L 3.125 -7.28125 L 3.125 -1.828125 L 5.34375 -1.828125 C 6.113281 -1.828125 6.5 -2.21875 6.5 -3 Z M 6.5 -6.125 "/></g></g></g></svg>